<svg width="8" height="8" viewBox="0 0 8 8" fill="none" xmlns="http://www.w3.org/2000/svg">
<g filter="url(#filter0_d_656604_559)">
<path d="M8 0.805714L7.19429 0L4 3.19429L0.805714 0L0 0.805714L3.19429 4L0 7.19429L0.805714 8L4 4.80571L7.19429 8L8 7.19429L4.80571 4L8 0.805714Z" fill="#2E2F42"/>
<path d="M4.45216 4.35355L7.29289 7.19429L7.19429 7.29289L4.35355 4.45216L4 4.09861L3.64645 4.45216L0.805714 7.29289L0.707107 7.19429L3.54784 4.35355L3.90139 4L3.54784 3.64645L0.707107 0.805714L0.805714 0.707107L3.64645 3.54784L4 3.90139L4.35355 3.54784L7.19429 0.707107L7.29289 0.805714L4.45216 3.64645L4.09861 4L4.45216 4.35355Z" stroke="black"/>
</g>
<defs>
<filter id="filter0_d_656604_559" x="-4" y="0" width="16" height="16" filterUnits="userSpaceOnUse" color-interpolation-filters="sRGB">
<feFlood flood-opacity="0" result="BackgroundImageFix"/>
<feColorMatrix in="SourceAlpha" type="matrix" values="0 0 0 0 0 0 0 0 0 0 0 0 0 0 0 0 0 0 127 0" result="hardAlpha"/>
<feOffset dy="4"/>
<feGaussianBlur stdDeviation="2"/>
<feComposite in2="hardAlpha" operator="out"/>
<feColorMatrix type="matrix" values="0 0 0 0 0 0 0 0 0 0 0 0 0 0 0 0 0 0 0.25 0"/>
<feBlend mode="normal" in2="BackgroundImageFix" result="effect1_dropShadow_656604_559"/>
<feBlend mode="normal" in="SourceGraphic" in2="effect1_dropShadow_656604_559" result="shape"/>
</filter>
</defs>
</svg>
