<svg width="16" height="12" viewBox="0 0 16 12" fill="none" xmlns="http://www.w3.org/2000/svg">
<g filter="url(#filter0_d_297039_1167)">
<path d="M11.4456 0.255056C11.6184 0.089653 11.8483 -0.00178848 12.0869 2.65108e-05C12.3255 0.0018415 12.5541 0.0967713 12.7244 0.264784C12.8947 0.432797 12.9934 0.660752 12.9997 0.900549C13.006 1.14034 12.9194 1.37323 12.7582 1.55005L7.86357 7.70436C7.7794 7.79551 7.67782 7.86865 7.5649 7.91942C7.45198 7.97018 7.33003 7.99754 7.20636 7.99984C7.08268 8.00214 6.95981 7.97935 6.8451 7.93282C6.73038 7.88629 6.62618 7.81698 6.53872 7.72903L3.29283 4.46564C3.20243 4.38096 3.12993 4.27884 3.07965 4.16537C3.02936 4.05191 3.00232 3.92942 3.00014 3.80522C2.99796 3.68102 3.02069 3.55765 3.06696 3.44248C3.11323 3.3273 3.18211 3.22267 3.26947 3.13483C3.35684 3.047 3.4609 2.97775 3.57547 2.93123C3.69003 2.88471 3.81273 2.86186 3.93627 2.86405C4.0598 2.86624 4.18163 2.89343 4.29449 2.94398C4.40734 2.99454 4.50892 3.06743 4.59315 3.15831L7.16189 5.73967L11.4223 0.28219C11.4299 0.272694 11.4381 0.263635 11.4468 0.255056H11.4456Z" fill="#F4F4FD"/>
<path d="M7.55601 6.04735L11.8065 0.602544L11.8075 0.60151C11.8844 0.535225 11.9823 0.499245 12.0831 0.500012C12.1912 0.500834 12.2953 0.543818 12.3732 0.620715C12.4512 0.697693 12.4969 0.802682 12.4999 0.913693C12.5028 1.02471 12.4626 1.13206 12.3887 1.21317L12.3773 1.22563L12.3668 1.23882L7.48594 7.37591C7.44951 7.41268 7.40676 7.4423 7.35988 7.46339C7.3085 7.48648 7.25313 7.49888 7.19705 7.49993C7.14097 7.50097 7.0852 7.49064 7.03303 7.46948C6.98087 7.44832 6.9333 7.41673 6.89324 7.37645L6.89322 7.37643L3.64733 4.11304L3.64111 4.10678L3.63467 4.10075C3.59329 4.06199 3.55995 4.0151 3.53677 3.96279C3.51358 3.91047 3.50107 3.85389 3.50007 3.79645C3.49906 3.739 3.50957 3.682 3.53092 3.62887C3.55226 3.57575 3.58396 3.52767 3.62398 3.48743C3.66399 3.44721 3.7115 3.41564 3.76359 3.39449C3.81568 3.37333 3.87138 3.36298 3.9274 3.36397C3.98341 3.36497 4.03873 3.37729 4.09008 3.40029C4.14142 3.42329 4.18782 3.45654 4.22643 3.49819L4.23246 3.5047L4.23873 3.511L6.80747 6.09236L7.20725 6.4941L7.55601 6.04735Z" stroke="black"/>
<path d="M7.55601 6.04735L11.8065 0.602544L11.8075 0.60151C11.8844 0.535225 11.9823 0.499245 12.0831 0.500012C12.1912 0.500834 12.2953 0.543818 12.3732 0.620715C12.4512 0.697693 12.4969 0.802682 12.4999 0.913693C12.5028 1.02471 12.4626 1.13206 12.3887 1.21317L12.3773 1.22563L12.3668 1.23882L7.48594 7.37591C7.44951 7.41268 7.40676 7.4423 7.35988 7.46339C7.3085 7.48648 7.25313 7.49888 7.19705 7.49993C7.14097 7.50097 7.0852 7.49064 7.03303 7.46948C6.98087 7.44832 6.9333 7.41673 6.89324 7.37645L6.89322 7.37643L3.64733 4.11304L3.64111 4.10678L3.63467 4.10075C3.59329 4.06199 3.55995 4.0151 3.53677 3.96279C3.51358 3.91047 3.50107 3.85389 3.50007 3.79645C3.49906 3.739 3.50957 3.682 3.53092 3.62887C3.55226 3.57575 3.58396 3.52767 3.62398 3.48743C3.66399 3.44721 3.7115 3.41564 3.76359 3.39449C3.81568 3.37333 3.87138 3.36298 3.9274 3.36397C3.98341 3.36497 4.03873 3.37729 4.09008 3.40029C4.14142 3.42329 4.18782 3.45654 4.22643 3.49819L4.23246 3.5047L4.23873 3.511L6.80747 6.09236L7.20725 6.4941L7.55601 6.04735Z" stroke="black" stroke-opacity="0.2"/>
<path d="M7.55601 6.04735L11.8065 0.602544L11.8075 0.60151C11.8844 0.535225 11.9823 0.499245 12.0831 0.500012C12.1912 0.500834 12.2953 0.543818 12.3732 0.620715C12.4512 0.697693 12.4969 0.802682 12.4999 0.913693C12.5028 1.02471 12.4626 1.13206 12.3887 1.21317L12.3773 1.22563L12.3668 1.23882L7.48594 7.37591C7.44951 7.41268 7.40676 7.4423 7.35988 7.46339C7.3085 7.48648 7.25313 7.49888 7.19705 7.49993C7.14097 7.50097 7.0852 7.49064 7.03303 7.46948C6.98087 7.44832 6.9333 7.41673 6.89324 7.37645L6.89322 7.37643L3.64733 4.11304L3.64111 4.10678L3.63467 4.10075C3.59329 4.06199 3.55995 4.0151 3.53677 3.96279C3.51358 3.91047 3.50107 3.85389 3.50007 3.79645C3.49906 3.739 3.50957 3.682 3.53092 3.62887C3.55226 3.57575 3.58396 3.52767 3.62398 3.48743C3.66399 3.44721 3.7115 3.41564 3.76359 3.39449C3.81568 3.37333 3.87138 3.36298 3.9274 3.36397C3.98341 3.36497 4.03873 3.37729 4.09008 3.40029C4.14142 3.42329 4.18782 3.45654 4.22643 3.49819L4.23246 3.5047L4.23873 3.511L6.80747 6.09236L7.20725 6.4941L7.55601 6.04735Z" stroke="black" stroke-opacity="0.2"/>
</g>
<defs>
<filter id="filter0_d_297039_1167" x="-1" y="0" width="18" height="16" filterUnits="userSpaceOnUse" color-interpolation-filters="sRGB">
<feFlood flood-opacity="0" result="BackgroundImageFix"/>
<feColorMatrix in="SourceAlpha" type="matrix" values="0 0 0 0 0 0 0 0 0 0 0 0 0 0 0 0 0 0 127 0" result="hardAlpha"/>
<feOffset dy="4"/>
<feGaussianBlur stdDeviation="2"/>
<feComposite in2="hardAlpha" operator="out"/>
<feColorMatrix type="matrix" values="0 0 0 0 0 0 0 0 0 0 0 0 0 0 0 0 0 0 0.25 0"/>
<feBlend mode="normal" in2="BackgroundImageFix" result="effect1_dropShadow_297039_1167"/>
<feBlend mode="normal" in="SourceGraphic" in2="effect1_dropShadow_297039_1167" result="shape"/>
</filter>
</defs>
</svg>
